#!Matlab matrix to amc conversion
:FULLY-SPECIFIED
:DEGREES
1
root 9.287220 16.950000 -34.276200 0.000000 0.000000 0.000000
lowerback 0.000000 0.000000 0.000000
upperback 0.000000 0.000000 0.000000
thorax 0.000000 0.000000 0.000000
lowerneck -16.000000 0.000000 0.000000
upperneck 21.000000 0.000000 0.000000
head 11.000000 0.000000 0.000000
rclavicle 0.000000 0.000000
rhumerus 0.000000 0.000000 0.000000
rradius 0.000000
rwrist 0.000000
rhand 0.000000 0.000000
rfingers 0.000000
rthumb 0.000000 0.000000
lclavicle 0.000000 0.000000
lhumerus 0.000000 0.000000 0.000000
lradius 0.000000
lwrist 0.000000
lhand 0.000000 0.000000
lfingers 0.000000
lthumb 0.000000 0.000000
rfemur 0.000000 0.000000 21.000000
rtibia 0.000000
rfoot 0.000000 0.000000
rtoes 0.000000
lfemur 0.000000 0.000000 -21.000000
ltibia 0.000000
lfoot 0.000000 0.000000
ltoes 0.000000
2
root 9.287220 16.950000 -34.276200 1.027195 1.634016 0.037426
lowerback -2.128819 1.102638 -0.716685
upperback -3.528186 1.377222 -0.357497
thorax -2.418203 0.707402 0.045109
lowerneck -14.614949 0.160482 -0.490344
upperneck 37.889752 0.294680 -0.038012
head 16.483516 0.113767 0.126226
rclavicle -0.000000 0.000000
rhumerus -42.321936 -13.147677 -73.628714
rradius 26.738356
rwrist -7.816653
rhand -5.166813 12.963321
rfingers 7.125020
rthumb 20.613157 -15.936859
lclavicle -0.000000 0.000000
lhumerus -33.977277 17.810718 69.203133
lradius 48.777242
lwrist 1.204376
lhand -4.218761 20.571033
lfingers 7.125020
lthumb 21.515622 49.342426
rfemur -32.030578 4.196887 20.580061
rtibia 40.921739
rfoot -13.425286 -20.160750
rtoes -7.007764
lfemur -13.202906 -10.159839 -25.066117
ltibia 26.901916
lfoot -22.291571 17.519444
ltoes 1.075470
3
root 9.273270 17.016600 -33.905900 1.030531 1.634016 -0.205625
lowerback -2.443933 0.970329 -0.956959
upperback -3.620106 1.192930 -0.085381
thorax -2.359776 0.625053 0.492679
lowerneck -14.656266 0.214526 -0.305143
upperneck 37.840643 0.371325 -0.220753
head 16.461832 0.152886 0.028539
rclavicle -0.000000 0.000000
rhumerus -42.666113 -14.038399 -72.656789
rradius 26.590054
rwrist -7.455684
rhand -4.993105 12.641725
rfingers 7.125020
rthumb 20.775805 -16.240539
lclavicle -0.000000 0.000000
lhumerus -33.018603 16.443019 69.982584
lradius 50.875585
lwrist 1.840196
lhand -4.262231 20.943701
lfingers 7.125020
lthumb 21.465337 49.693489
rfemur -33.764228 5.914054 19.353468
rtibia 33.857042
rfoot -15.576333 -21.282810
rtoes -7.393880
lfemur -10.568573 -10.413603 -25.281332
ltibia 23.833241
lfoot -22.698729 18.055325
ltoes 0.531590
4
root 9.268420 17.025800 -33.555600 1.752364 1.634016 0.061388
lowerback -3.212005 0.495190 -1.808335
upperback -3.800389 0.598557 0.057189
thorax -2.157689 0.353795 1.119285
lowerneck -14.956788 0.225327 -0.204585
upperneck 37.808253 0.419466 -0.392849
head 16.536028 0.164105 -0.063847
rclavicle -0.000000 0.000000
rhumerus -42.838438 -15.518597 -71.288481
rradius 25.592448
rwrist -5.906231
rhand -4.910542 12.788004
rfingers 7.125020
rthumb 20.858709 -16.085569
lclavicle -0.000000 0.000000
lhumerus -32.684584 15.788377 70.139471
lradius 51.761598
lwrist 1.597946
lhand -4.266244 20.812083
lfingers 7.125020
lthumb 21.475212 49.570336
rfemur -36.320820 10.572199 14.225476
rtibia 28.958170
rfoot -19.471561 -24.469214
rtoes -4.752092
lfemur -7.486716 -10.483159 -25.861169
ltibia 19.397889
lfoot -20.604913 18.324233
ltoes -2.535332
5
root 9.249270 17.016300 -33.220600 2.385918 1.634016 0.167858
lowerback -3.983095 0.032986 -2.621610
upperback -3.980497 0.015742 0.201348
thorax -1.952595 0.088875 1.738950
lowerneck -15.263536 0.236066 -0.100826
upperneck 37.785799 0.468496 -0.570889
head 16.615276 0.175545 -0.159675
rclavicle -0.000000 0.000000
rhumerus -43.038061 -16.991230 -69.953599
rradius 24.599351
rwrist -4.439527
rhand -4.820734 12.935498
rfingers 7.125020
rthumb 20.948213 -15.929172
lclavicle -0.000000 0.000000
lhumerus -32.361312 15.153034 70.281055
lradius 52.623850
lwrist 1.344237
lhand -4.258445 20.644146
lfingers 7.125020
lthumb 21.496037 49.412529
rfemur -38.858036 14.861074 9.652813
rtibia 24.328203
rfoot -23.022670 -27.396077
rtoes -2.255766
lfemur -4.455620 -10.562744 -26.416431
ltibia 15.434057
lfoot -18.638073 18.592334
ltoes -5.279156
6
root 9.246830 17.017700 -32.897400 2.319015 1.634016 -0.020453
lowerback -4.021528 -0.099751 -2.433441
upperback -4.008773 -0.152322 0.613064
thorax -1.920943 0.003557 2.022361
lowerneck -15.571598 0.280007 -0.013075
upperneck 37.893631 0.679351 -0.936490
head 16.754170 0.216137 -0.304356
rclavicle -0.000000 0.000000
rhumerus -43.616818 -17.775463 -68.829489
rradius 24.122345
rwrist -3.882291
rhand -5.054812 12.760219
rfingers 7.125020
rthumb 20.731001 -16.114609
lclavicle -0.000000 0.000000
lhumerus -33.603671 15.017299 70.201431
lradius 52.149856
lwrist 1.039857
lhand -4.600777 20.329030
lfingers 7.125020
lthumb 21.168356 49.135413
rfemur -38.686423 15.539949 10.266145
rtibia 23.951177
rfoot -21.640698 -26.492804
rtoes -1.227806
lfemur -2.231018 -10.887910 -25.984756
ltibia 15.419457
lfoot -18.859227 18.391319
ltoes -8.805229
7
root 9.219480 17.016100 -32.563300 2.256082 1.634016 -0.090203
lowerback -4.052515 -0.219098 -2.233178
upperback -4.032278 -0.306169 0.990608
thorax -1.893955 -0.074791 2.283203
lowerneck -15.854917 0.323816 0.069236
upperneck 38.002243 0.888466 -1.290785
head 16.892238 0.256570 -0.438026
rclavicle -0.000000 0.000000
rhumerus -44.118298 -18.458965 -67.839916
rradius 23.671243
rwrist -3.376923
rhand -5.293038 12.623301
rfingers 7.125020
rthumb 20.509601 -16.259577
lclavicle -0.000000 0.000000
lhumerus -34.784596 14.892996 70.122289
lradius 51.636968
lwrist 0.740661
lhand -4.931157 20.026682
lfingers 7.125020
lthumb 20.851995 48.871325
rfemur -38.482505 15.945585 10.940462
rtibia 23.987136
rfoot -20.269413 -25.605613
rtoes -0.530738
lfemur -0.185072 -11.177421 -25.571059
ltibia 15.623784
lfoot -19.026343 18.187516
ltoes -11.813361
8
root 9.210440 16.998300 -32.235300 2.177433 1.634016 -0.113314
lowerback -4.076499 -0.330149 -1.986405
upperback -4.051708 -0.451636 1.375439
thorax -1.870718 -0.149027 2.539639
lowerneck -16.131087 0.368044 0.149976
upperneck 38.112694 1.098583 -1.646615
head 17.031027 0.297333 -0.570582
rclavicle -0.000000 0.000000
rhumerus -44.596125 -19.118708 -66.895568
rradius 23.225786
rwrist -2.887305
rhand -5.539717 12.490691
rfingers 7.125020
rthumb 20.280015 -16.409084
lclavicle -0.000000 0.000000
lhumerus -36.036686 14.777944 70.042038
lradius 51.064679
lwrist 0.440908
lhand -5.258706 19.725859
lfingers 7.125020
lthumb 20.538219 48.610312
rfemur -38.238131 16.177010 11.859078
rtibia 24.471688
rfoot -18.594784 -24.583070
rtoes -0.043062
lfemur 1.802384 -11.451974 -25.133774
ltibia 16.088239
lfoot -19.161903 17.978650
ltoes -14.828619
